# xmcd CD database file
#
# Track frame offsets:
#	150
#	26461
#	45716
#	64226
#	96960
#	115956
#	133640
#	155447
#	186039
#	210100
#	233523
#
# Disc length: 3403 seconds
#
# Revision: 1
# Processed by: cddbd v1.4PL0 Copyright (c) Steve Scherf et al.
# Submitted via: CDex 1.50Beta5
#
DISCID=890d490b
DTITLE=Banda Calcinha Preta - Sou Seu Amor
DYEAR=2001
DGENRE=Forró
TTITLE0=Intro
TTITLE1=Hello
TTITLE2=Cobertor
TTITLE3=Liguei Pra Dizer Que Te Amo - Você Marcou Demais Minha Vida-Isso é Bom
TTITLE4=Meu Amor Minha Paixão - Louca Por Você
TTITLE5=Sou Maluco por Você
TTITLE6=Sou Seu Amor - Eu Te Amo
TTITLE7=Jogo Marcado - Qualquer Jeito
TTITLE8=Louca Por Ti - Fonte De Desejos
TTITLE9=Me Dá um Beijo - Amor Proibido
TTITLE10=Eu Vim Pra Te Ver - Calcinha Preta
EXTD=YEAR: 2001
EXTT0=
EXTT1=
EXTT2=
EXTT3=
EXTT4=
EXTT5=
EXTT6=
EXTT7=
EXTT8=
EXTT9=
EXTT10=
PLAYORDER=
